TITLE ""
FILE "LR_black_phrase_E_B06.mp3" MP3
  TRACK 01 AUDIO
    TITLE "LR_black_phrase_E_B06_001"
    INDEX 01 00:00:00
  TRACK 02 AUDIO
    TITLE "LR_black_phrase_E_B06_002"
    INDEX 01 00:00:14
  TRACK 03 AUDIO
    TITLE "LR_black_phrase_E_B06_003"
    INDEX 01 00:01:37
  TRACK 04 AUDIO
    TITLE "LR_black_phrase_E_B06_004"
    INDEX 01 00:01:67
  TRACK 05 AUDIO
    TITLE "LR_black_phrase_E_B06_005"
    INDEX 01 00:04:08
  TRACK 06 AUDIO
    TITLE "LR_black_phrase_E_B06_006"
    INDEX 01 00:04:63
  TRACK 07 AUDIO
    TITLE "LR_black_phrase_E_B06_007"
    INDEX 01 00:07:03
  TRACK 08 AUDIO
    TITLE "LR_black_phrase_E_B06_008"
    INDEX 01 00:08:08
  TRACK 09 AUDIO
    TITLE "LR_black_phrase_E_B06_009"
    INDEX 01 00:09:15
  TRACK 10 AUDIO
    TITLE "LR_black_phrase_E_B06_010"
    INDEX 01 00:09:45
  TRACK 11 AUDIO
    TITLE "LR_black_phrase_E_B06_011"
    INDEX 01 00:11:41
  TRACK 12 AUDIO
    TITLE "LR_black_phrase_E_B06_012"
    INDEX 01 00:12:23
  TRACK 13 AUDIO
    TITLE "LR_black_phrase_E_B06_013"
    INDEX 01 00:14:18
  TRACK 14 AUDIO
    TITLE "LR_black_phrase_E_B06_014"
    INDEX 01 00:15:27
  TRACK 15 AUDIO
    TITLE "LR_black_phrase_E_B06_015"
    INDEX 01 00:16:49
  TRACK 16 AUDIO
    TITLE "LR_black_phrase_E_B06_016"
    INDEX 01 00:17:05
  TRACK 17 AUDIO
    TITLE "LR_black_phrase_E_B06_017"
    INDEX 01 00:19:31
  TRACK 18 AUDIO
    TITLE "LR_black_phrase_E_B06_018"
    INDEX 01 00:20:09
  TRACK 19 AUDIO
    TITLE "LR_black_phrase_E_B06_019"
    INDEX 01 00:22:35
  TRACK 20 AUDIO
    TITLE "LR_black_phrase_E_B06_020"
    INDEX 01 00:23:35
  TRACK 21 AUDIO
    TITLE "LR_black_phrase_E_B06_021"
    INDEX 01 00:24:48
  TRACK 22 AUDIO
    TITLE "LR_black_phrase_E_B06_022"
    INDEX 01 00:24:70
  TRACK 23 AUDIO
    TITLE "LR_black_phrase_E_B06_023"
    INDEX 01 00:27:39
  TRACK 24 AUDIO
    TITLE "LR_black_phrase_E_B06_024"
    INDEX 01 00:28:07
  TRACK 25 AUDIO
    TITLE "LR_black_phrase_E_B06_025"
    INDEX 01 00:30:51
  TRACK 26 AUDIO
    TITLE "LR_black_phrase_E_B06_026"
    INDEX 01 00:31:46
  TRACK 27 AUDIO
    TITLE "LR_black_phrase_E_B06_027"
    INDEX 01 00:32:61
  TRACK 28 AUDIO
    TITLE "LR_black_phrase_E_B06_028"
    INDEX 01 00:33:10
  TRACK 29 AUDIO
    TITLE "LR_black_phrase_E_B06_029"
    INDEX 01 00:34:64
  TRACK 30 AUDIO
    TITLE "LR_black_phrase_E_B06_030"
    INDEX 01 00:35:32
  TRACK 31 AUDIO
    TITLE "LR_black_phrase_E_B06_031"
    INDEX 01 00:37:13
  TRACK 32 AUDIO
    TITLE "LR_black_phrase_E_B06_032"
    INDEX 01 00:38:07
  TRACK 33 AUDIO
    TITLE "LR_black_phrase_E_B06_033"
    INDEX 01 00:39:22
  TRACK 34 AUDIO
    TITLE "LR_black_phrase_E_B06_034"
    INDEX 01 00:39:42
  TRACK 35 AUDIO
    TITLE "LR_black_phrase_E_B06_035"
    INDEX 01 00:41:54
  TRACK 36 AUDIO
    TITLE "LR_black_phrase_E_B06_036"
    INDEX 01 00:42:26
  TRACK 37 AUDIO
    TITLE "LR_black_phrase_E_B06_037"
    INDEX 01 00:44:39
  TRACK 38 AUDIO
    TITLE "LR_black_phrase_E_B06_038"
    INDEX 01 00:45:36
  TRACK 39 AUDIO
    TITLE "LR_black_phrase_E_B06_039"
    INDEX 01 00:46:48
  TRACK 40 AUDIO
    TITLE "LR_black_phrase_E_B06_040"
    INDEX 01 00:47:02
  TRACK 41 AUDIO
    TITLE "LR_black_phrase_E_B06_041"
    INDEX 01 00:49:05
  TRACK 42 AUDIO
    TITLE "LR_black_phrase_E_B06_042"
    INDEX 01 00:49:60
  TRACK 43 AUDIO
    TITLE "LR_black_phrase_E_B06_043"
    INDEX 01 00:51:63
  TRACK 44 AUDIO
    TITLE "LR_black_phrase_E_B06_044"
    INDEX 01 00:52:68
  TRACK 45 AUDIO
    TITLE "LR_black_phrase_E_B06_045"
    INDEX 01 00:54:20
  TRACK 46 AUDIO
    TITLE "LR_black_phrase_E_B06_046"
    INDEX 01 00:54:49
  TRACK 47 AUDIO
    TITLE "LR_black_phrase_E_B06_047"
    INDEX 01 00:57:22
  TRACK 48 AUDIO
    TITLE "LR_black_phrase_E_B06_048"
    INDEX 01 00:57:75
  TRACK 49 AUDIO
    TITLE "LR_black_phrase_E_B06_049"
    INDEX 01 01:00:46
  TRACK 50 AUDIO
    TITLE "LR_black_phrase_E_B06_050"
    INDEX 01 01:01:53
  TRACK 51 AUDIO
    TITLE "LR_black_phrase_E_B06_051"
    INDEX 01 01:03:13
  TRACK 52 AUDIO
    TITLE "LR_black_phrase_E_B06_052"
    INDEX 01 01:03:42
  TRACK 53 AUDIO
    TITLE "LR_black_phrase_E_B06_053"
    INDEX 01 01:06:46
  TRACK 54 AUDIO
    TITLE "LR_black_phrase_E_B06_054"
    INDEX 01 01:07:24
  TRACK 55 AUDIO
    TITLE "LR_black_phrase_E_B06_055"
    INDEX 01 01:10:31
  TRACK 56 AUDIO
    TITLE "LR_black_phrase_E_B06_056"
    INDEX 01 01:11:28
  TRACK 57 AUDIO
    TITLE "LR_black_phrase_E_B06_057"
    INDEX 01 01:12:25
  TRACK 58 AUDIO
    TITLE "LR_black_phrase_E_B06_058"
    INDEX 01 01:12:53
  TRACK 59 AUDIO
    TITLE "LR_black_phrase_E_B06_059"
    INDEX 01 01:14:62
  TRACK 60 AUDIO
    TITLE "LR_black_phrase_E_B06_060"
    INDEX 01 01:15:32
  TRACK 61 AUDIO
    TITLE "LR_black_phrase_E_B06_061"
    INDEX 01 01:17:42
  TRACK 62 AUDIO
    TITLE "LR_black_phrase_E_B06_062"
    INDEX 01 01:18:38
  TRACK 63 AUDIO
    TITLE "LR_black_phrase_E_B06_063"
    INDEX 01 01:19:63
  TRACK 64 AUDIO
    TITLE "LR_black_phrase_E_B06_064"
    INDEX 01 01:20:07
  TRACK 65 AUDIO
    TITLE "LR_black_phrase_E_B06_065"
    INDEX 01 01:22:36
  TRACK 66 AUDIO
    TITLE "LR_black_phrase_E_B06_066"
    INDEX 01 01:23:10
  TRACK 67 AUDIO
    TITLE "LR_black_phrase_E_B06_067"
    INDEX 01 01:25:36
  TRACK 68 AUDIO
    TITLE "LR_black_phrase_E_B06_068"
    INDEX 01 01:26:31
  TRACK 69 AUDIO
    TITLE "LR_black_phrase_E_B06_069"
    INDEX 01 01:27:33
  TRACK 70 AUDIO
    TITLE "LR_black_phrase_E_B06_070"
    INDEX 01 01:27:54
  TRACK 71 AUDIO
    TITLE "LR_black_phrase_E_B06_071"
    INDEX 01 01:29:36
  TRACK 72 AUDIO
    TITLE "LR_black_phrase_E_B06_072"
    INDEX 01 01:30:10
  TRACK 73 AUDIO
    TITLE "LR_black_phrase_E_B06_073"
    INDEX 01 01:31:66
  TRACK 74 AUDIO
    TITLE "LR_black_phrase_E_B06_074"
    INDEX 01 01:32:67
  TRACK 75 AUDIO
    TITLE "LR_black_phrase_E_B06_075"
    INDEX 01 01:34:13
  TRACK 76 AUDIO
    TITLE "LR_black_phrase_E_B06_076"
    INDEX 01 01:34:45
  TRACK 77 AUDIO
    TITLE "LR_black_phrase_E_B06_077"
    INDEX 01 01:36:40
  TRACK 78 AUDIO
    TITLE "LR_black_phrase_E_B06_078"
    INDEX 01 01:37:22
  TRACK 79 AUDIO
    TITLE "LR_black_phrase_E_B06_079"
    INDEX 01 01:39:15
  TRACK 80 AUDIO
    TITLE "LR_black_phrase_E_B06_080"
    INDEX 01 01:40:20
  TRACK 81 AUDIO
    TITLE "LR_black_phrase_E_B06_081"
    INDEX 01 01:41:33
  TRACK 82 AUDIO
    TITLE "LR_black_phrase_E_B06_082"
    INDEX 01 01:41:62
  TRACK 83 AUDIO
    TITLE "LR_black_phrase_E_B06_083"
    INDEX 01 01:44:02
  TRACK 84 AUDIO
    TITLE "LR_black_phrase_E_B06_084"
    INDEX 01 01:44:59
  TRACK 85 AUDIO
    TITLE "LR_black_phrase_E_B06_085"
    INDEX 01 01:46:71
  TRACK 86 AUDIO
    TITLE "LR_black_phrase_E_B06_086"
    INDEX 01 01:48:02
  TRACK 87 AUDIO
    TITLE "LR_black_phrase_E_B06_087"
    INDEX 01 01:49:21
  TRACK 88 AUDIO
    TITLE "LR_black_phrase_E_B06_088"
    INDEX 01 01:49:50
  TRACK 89 AUDIO
    TITLE "LR_black_phrase_E_B06_089"
    INDEX 01 01:51:39
  TRACK 90 AUDIO
    TITLE "LR_black_phrase_E_B06_090"
    INDEX 01 01:52:17
  TRACK 91 AUDIO
    TITLE "LR_black_phrase_E_B06_091"
    INDEX 01 01:54:06
  TRACK 92 AUDIO
    TITLE "LR_black_phrase_E_B06_092"
    INDEX 01 01:55:04
  TRACK 93 AUDIO
    TITLE "LR_black_phrase_E_B06_093"
    INDEX 01 01:56:31
  TRACK 94 AUDIO
    TITLE "LR_black_phrase_E_B06_094"
    INDEX 01 01:56:54
  TRACK 95 AUDIO
    TITLE "LR_black_phrase_E_B06_095"
    INDEX 01 01:58:73
  TRACK 96 AUDIO
    TITLE "LR_black_phrase_E_B06_096"
    INDEX 01 01:59:51
  TRACK 97 AUDIO
    TITLE "LR_black_phrase_E_B06_097"
    INDEX 01 02:01:69
  TRACK 98 AUDIO
    TITLE "LR_black_phrase_E_B06_098"
    INDEX 01 02:02:70
  TRACK 99 AUDIO
    TITLE "LR_black_phrase_E_B06_099"
    INDEX 01 02:03:68
  TRACK 100 AUDIO
    TITLE "LR_black_phrase_E_B06_100"
    INDEX 01 02:04:20
  TRACK 101 AUDIO
    TITLE "LR_black_phrase_E_B06_101"
    INDEX 01 02:06:09
  TRACK 102 AUDIO
    TITLE "LR_black_phrase_E_B06_102"
    INDEX 01 02:06:62
  TRACK 103 AUDIO
    TITLE "LR_black_phrase_E_B06_103"
    INDEX 01 02:08:49
  TRACK 104 AUDIO
    TITLE "LR_black_phrase_E_B06_104"
    INDEX 01 02:09:47
  TRACK 105 AUDIO
    TITLE "LR_black_phrase_E_B06_105"
    INDEX 01 02:10:60
  TRACK 106 AUDIO
    TITLE "LR_black_phrase_E_B06_106"
    INDEX 01 02:11:05
  TRACK 107 AUDIO
    TITLE "LR_black_phrase_E_B06_107"
    INDEX 01 02:13:45
  TRACK 108 AUDIO
    TITLE "LR_black_phrase_E_B06_108"
    INDEX 01 02:14:15
  TRACK 109 AUDIO
    TITLE "LR_black_phrase_E_B06_109"
    INDEX 01 02:16:55
  TRACK 110 AUDIO
    TITLE "LR_black_phrase_E_B06_110"
    INDEX 01 02:17:54
  TRACK 111 AUDIO
    TITLE "LR_black_phrase_E_B06_111"
    INDEX 01 02:18:69
  TRACK 112 AUDIO
    TITLE "LR_black_phrase_E_B06_112"
    INDEX 01 02:19:22
  TRACK 113 AUDIO
    TITLE "LR_black_phrase_E_B06_113"
    INDEX 01 02:21:34
  TRACK 114 AUDIO
    TITLE "LR_black_phrase_E_B06_114"
    INDEX 01 02:22:12
  TRACK 115 AUDIO
    TITLE "LR_black_phrase_E_B06_115"
    INDEX 01 02:24:25
  TRACK 116 AUDIO
    TITLE "LR_black_phrase_E_B06_116"
    INDEX 01 02:25:28
  TRACK 117 AUDIO
    TITLE "LR_black_phrase_E_B06_117"
    INDEX 01 02:26:49
  TRACK 118 AUDIO
    TITLE "LR_black_phrase_E_B06_118"
    INDEX 01 02:27:06
  TRACK 119 AUDIO
    TITLE "LR_black_phrase_E_B06_119"
    INDEX 01 02:29:03
  TRACK 120 AUDIO
    TITLE "LR_black_phrase_E_B06_120"
    INDEX 01 02:29:57
  TRACK 121 AUDIO
    TITLE "LR_black_phrase_E_B06_121"
    INDEX 01 02:31:58
  TRACK 122 AUDIO
    TITLE "LR_black_phrase_E_B06_122"
    INDEX 01 02:32:62
  TRACK 123 AUDIO
    TITLE "LR_black_phrase_E_B06_123"
    INDEX 01 02:33:75
  TRACK 124 AUDIO
    TITLE "LR_black_phrase_E_B06_124"
    INDEX 01 02:34:29
  TRACK 125 AUDIO
    TITLE "LR_black_phrase_E_B06_125"
    INDEX 01 02:36:20
  TRACK 126 AUDIO
    TITLE "LR_black_phrase_E_B06_126"
    INDEX 01 02:36:75
  TRACK 127 AUDIO
    TITLE "LR_black_phrase_E_B06_127"
    INDEX 01 02:38:66
  TRACK 128 AUDIO
    TITLE "LR_black_phrase_E_B06_128"
    INDEX 01 02:39:66
  TRACK 129 AUDIO
    TITLE "LR_black_phrase_E_B06_129"
    INDEX 01 02:41:23
  TRACK 130 AUDIO
    TITLE "LR_black_phrase_E_B06_130"
    INDEX 01 02:41:43
  TRACK 131 AUDIO
    TITLE "LR_black_phrase_E_B06_131"
    INDEX 01 02:44:26
  TRACK 132 AUDIO
    TITLE "LR_black_phrase_E_B06_132"
    INDEX 01 02:44:75
  TRACK 133 AUDIO
    TITLE "LR_black_phrase_E_B06_133"
    INDEX 01 02:47:52
  TRACK 134 AUDIO
    TITLE "LR_black_phrase_E_B06_134"
    INDEX 01 02:48:63
  TRACK 135 AUDIO
    TITLE "LR_black_phrase_E_B06_135"
    INDEX 01 02:50:13
  TRACK 136 AUDIO
    TITLE "LR_black_phrase_E_B06_136"
    INDEX 01 02:50:38
  TRACK 137 AUDIO
    TITLE "LR_black_phrase_E_B06_137"
    INDEX 01 02:53:13
  TRACK 138 AUDIO
    TITLE "LR_black_phrase_E_B06_138"
    INDEX 01 02:53:60
  TRACK 139 AUDIO
    TITLE "LR_black_phrase_E_B06_139"
    INDEX 01 02:56:37
  TRACK 140 AUDIO
    TITLE "LR_black_phrase_E_B06_140"
    INDEX 01 02:57:32
  TRACK 141 AUDIO
    TITLE "LR_black_phrase_E_B06_141"
    INDEX 01 02:58:47
  TRACK 142 AUDIO
    TITLE "LR_black_phrase_E_B06_142"
    INDEX 01 02:59:02
  TRACK 143 AUDIO
    TITLE "LR_black_phrase_E_B06_143"
    INDEX 01 03:01:18
  TRACK 144 AUDIO
    TITLE "LR_black_phrase_E_B06_144"
    INDEX 01 03:01:71
  TRACK 145 AUDIO
    TITLE "LR_black_phrase_E_B06_145"
    INDEX 01 03:04:15
  TRACK 146 AUDIO
    TITLE "LR_black_phrase_E_B06_146"
    INDEX 01 03:05:18
  TRACK 147 AUDIO
    TITLE "LR_black_phrase_E_B06_147"
    INDEX 01 03:06:35
  TRACK 148 AUDIO
    TITLE "LR_black_phrase_E_B06_148"
    INDEX 01 03:06:66
  TRACK 149 AUDIO
    TITLE "LR_black_phrase_E_B06_149"
    INDEX 01 03:09:30
  TRACK 150 AUDIO
    TITLE "LR_black_phrase_E_B06_150"
    INDEX 01 03:10:09
  TRACK 151 AUDIO
    TITLE "LR_black_phrase_E_B06_151"
    INDEX 01 03:12:49
  TRACK 152 AUDIO
    TITLE "LR_black_phrase_E_B06_152"
    INDEX 01 03:13:55
  TRACK 153 AUDIO
    TITLE "LR_black_phrase_E_B06_153"
    INDEX 01 03:14:62
  TRACK 154 AUDIO
    TITLE "LR_black_phrase_E_B06_154"
    INDEX 01 03:15:16
  TRACK 155 AUDIO
    TITLE "LR_black_phrase_E_B06_155"
    INDEX 01 03:17:10
  TRACK 156 AUDIO
    TITLE "LR_black_phrase_E_B06_156"
    INDEX 01 03:17:62
  TRACK 157 AUDIO
    TITLE "LR_black_phrase_E_B06_157"
    INDEX 01 03:19:53
  TRACK 158 AUDIO
    TITLE "LR_black_phrase_E_B06_158"
    INDEX 01 03:20:57
  TRACK 159 AUDIO
    TITLE "LR_black_phrase_E_B06_159"
    INDEX 01 03:22:07
  TRACK 160 AUDIO
    TITLE "LR_black_phrase_E_B06_160"
    INDEX 01 03:22:34
  TRACK 161 AUDIO
    TITLE "LR_black_phrase_E_B06_161"
    INDEX 01 03:25:21
  TRACK 162 AUDIO
    TITLE "LR_black_phrase_E_B06_162"
    INDEX 01 03:26:03
  TRACK 163 AUDIO
    TITLE "LR_black_phrase_E_B06_163"
    INDEX 01 03:28:64
  TRACK 164 AUDIO
    TITLE "LR_black_phrase_E_B06_164"
    INDEX 01 03:29:62
  TRACK 165 AUDIO
    TITLE "LR_black_phrase_E_B06_165"
    INDEX 01 03:30:73
  TRACK 166 AUDIO
    TITLE "LR_black_phrase_E_B06_166"
    INDEX 01 03:31:23
  TRACK 167 AUDIO
    TITLE "LR_black_phrase_E_B06_167"
    INDEX 01 03:33:69
  TRACK 168 AUDIO
    TITLE "LR_black_phrase_E_B06_168"
    INDEX 01 03:34:45
  TRACK 169 AUDIO
    TITLE "LR_black_phrase_E_B06_169"
    INDEX 01 03:37:18
  TRACK 170 AUDIO
    TITLE "LR_black_phrase_E_B06_170"
    INDEX 01 03:38:18
  TRACK 171 AUDIO
    TITLE "LR_black_phrase_E_B06_171"
    INDEX 01 03:39:21
  TRACK 172 AUDIO
    TITLE "LR_black_phrase_E_B06_172"
    INDEX 01 03:39:46
  TRACK 173 AUDIO
    TITLE "LR_black_phrase_E_B06_173"
    INDEX 01 03:41:28
  TRACK 174 AUDIO
    TITLE "LR_black_phrase_E_B06_174"
    INDEX 01 03:42:06
  TRACK 175 AUDIO
    TITLE "LR_black_phrase_E_B06_175"
    INDEX 01 03:43:62
  TRACK 176 AUDIO
    TITLE "LR_black_phrase_E_B06_176"
    INDEX 01 03:44:65
  TRACK 177 AUDIO
    TITLE "LR_black_phrase_E_B06_177"
    INDEX 01 03:46:03
  TRACK 178 AUDIO
    TITLE "LR_black_phrase_E_B06_178"
    INDEX 01 03:46:25
  TRACK 179 AUDIO
    TITLE "LR_black_phrase_E_B06_179"
    INDEX 01 03:48:49
  TRACK 180 AUDIO
    TITLE "LR_black_phrase_E_B06_180"
    INDEX 01 03:49:19
  TRACK 181 AUDIO
    TITLE "LR_black_phrase_E_B06_181"
    INDEX 01 03:51:46
